<svg xmlns="http://www.w3.org/2000/svg" id="Layer_1" viewBox="0 0 858 344"><defs><style>      .st0 {        fill: #0a1856;      }      .st1 {        fill: #43ace1;      }      .st2 {        fill: #4d4d4d;      }    </style></defs><path class="st1" d="M451,19.2h-43.6v13.8h42.1v19h-42.1v23.2h-21.5V.3h65.1v18.9Z"></path><path class="st1" d="M515.1,75.2l-3.7-9.1h-34.2l-3.7,9.1h-22.5L482.7.3h23.1l31.8,74.9h-22.5ZM484,49.1h20.3l-10.2-24.7-10.1,24.7Z"></path><path class="st1" d="M544.4,75.2V.3h21.5v74.9h-21.5Z"></path><path class="st1" d="M651.6,75.2h-21.5l-9.8-19.2h-21.1v19.2h-21.5V.3h41.7c21.1,0,30,11.9,30,27.9s-3.2,17.8-10.4,22.7l12.6,24.3ZM599.2,19.2v17.9h17.8c8.5,0,10.7-3.7,10.7-8.9s-2.2-9-10.7-9h-17.8Z"></path><path class="st1" d="M440.8,102.6h21.6v74.9h-21.6v-26.4h-33.4v26.4h-21.5v-74.9h21.5v30.4h33.4v-30.4Z"></path><path class="st1" d="M539.3,121.4h-43.6v10.4h42.3v16.7h-42.3v10.2h43.6v18.8h-65.1v-74.9h65.1v18.8Z"></path><path class="st1" d="M610.3,177.5l-3.7-9.1h-34.2l-3.7,9.1h-22.4l31.7-74.9h23l31.8,74.9h-22.5ZM579.3,151.4h20.3l-10.2-24.7-10.1,24.7Z"></path><path class="st1" d="M661.1,158.6h43.6v18.9h-65.1v-74.9h21.5v56Z"></path><path class="st1" d="M771.8,102.6v18.9h-25.6v56h-21.5v-56h-25.7v-18.9h72.8Z"></path><path class="st1" d="M835.5,102.6h21.6v74.9h-21.6v-26.4h-33.4v26.4h-21.5v-74.9h21.5v30.4h33.4v-30.4Z"></path><path class="st0" d="M383.2,242.4c0-21.9,15.2-39.1,40.9-39.1s35.3,11.7,38,30.8h-21.1c-3-8.6-8.9-11.2-16.9-11.2-12.4,0-19,7.8-19,19.5s6.6,19.5,19,19.5,13.9-2.7,16.9-11.2h21.1c-2.7,19.2-16.6,30.8-38,30.8-25.7-.1-40.9-17.2-40.9-39.1Z"></path><path class="st0" d="M526.7,279.8l-3.7-9.1h-34.2l-3.7,9.1h-22.4l31.7-74.9h23.1l31.8,74.9h-22.6ZM495.7,253.7h20.3l-10.1-24.7-10.2,24.7Z"></path><path class="st0" d="M630,279.8h-21.5l-9.8-19.2h-21.1v19.2h-21.6v-74.9h41.7c21.1,0,30,11.9,30,27.9s-3.2,17.8-10.4,22.7l12.7,24.3ZM577.6,223.9v17.9h17.9c8.5,0,10.7-3.7,10.7-8.9s-2.2-9-10.7-9h-17.9Z"></path><path class="st0" d="M703.5,223.8h-43.6v10.4h42.3v16.7h-42.3v10.1h43.6v18.8h-65.1v-74.9h65.1v18.9Z"></path><path class="st2" d="M394.8,320.3c1.3-1.3,2.8-2.3,4.6-2.9,1.8-.6,3.6-.9,5.4-.9,3.8,0,6.5.9,8.1,2.7,1.7,1.8,2.5,4.5,2.5,8.1v10.7c0,.7,0,1.5.1,2.2.1.8.2,1.5.3,2.1h-4.1c-.1-.6-.2-1.2-.2-1.9v-1.9h-.1c-.8,1.3-1.9,2.4-3.3,3.2-1.4.8-3.1,1.2-5,1.2s-2.5-.2-3.7-.5c-1.1-.3-2.1-.8-3-1.4-.8-.6-1.5-1.4-2-2.4-.5-.9-.8-2-.8-3.2,0-2.1.5-3.7,1.6-4.9,1.1-1.2,2.4-2.1,4-2.7,1.6-.6,3.3-.9,5.2-1.1,1.9-.1,3.6-.2,5.1-.2h1.6v-.8c0-1.8-.6-3.2-1.7-4.2-1.1-.9-2.6-1.4-4.6-1.4s-2.7.2-4,.7c-1.3.5-2.5,1.1-3.5,2.1l-2.5-2.6ZM407.1,330.2c-2.7,0-4.9.4-6.4,1.1-1.6.8-2.4,2-2.4,3.7s.5,2.7,1.6,3.4c1.1.7,2.4,1,4,1s2.3-.2,3.2-.6c.9-.4,1.7-1,2.3-1.7.6-.7,1.1-1.5,1.4-2.4.3-.9.5-1.9.5-2.9v-1.6h-4.2Z"></path><path class="st2" d="M443.1,301.5h4.2v40.9h-4.2v-40.9Z"></path><path class="st2" d="M475.6,301.5h4.2v40.9h-4.2v-40.9Z"></path><path class="st2" d="M507.2,307.2c0-.8.3-1.6.9-2.2s1.3-.9,2.2-.9,1.6.3,2.2.9c.6.6.9,1.3.9,2.2s-.3,1.6-.9,2.2c-.6.6-1.3.9-2.2.9s-1.6-.3-2.2-.9-.9-1.3-.9-2.2ZM508.2,317.1h4.2v25.3h-4.2v-25.3Z"></path><path class="st2" d="M539.9,320.3c1.3-1.3,2.8-2.3,4.6-2.9s3.6-.9,5.4-.9c3.8,0,6.5.9,8.1,2.7,1.7,1.8,2.5,4.5,2.5,8.1v10.7c0,.7,0,1.5,0,2.2.1.8.2,1.5.3,2.1h-4.1c0-.6-.2-1.2-.2-1.9v-1.9h0c-.8,1.3-1.9,2.4-3.3,3.2-1.4.8-3.1,1.2-5,1.2s-2.5-.2-3.7-.5c-1.1-.3-2.1-.8-3-1.4-.8-.6-1.5-1.4-2-2.4-.5-.9-.8-2-.8-3.2,0-2.1.5-3.7,1.6-4.9,1.1-1.2,2.4-2.1,4-2.7,1.6-.6,3.3-.9,5.2-1.1,1.9-.1,3.6-.2,5.1-.2h1.6v-.8c0-1.8-.6-3.2-1.7-4.2-1.1-.9-2.6-1.4-4.6-1.4s-2.7.2-4,.7c-1.3.5-2.5,1.1-3.5,2.1l-2.5-2.6ZM552.1,330.2c-2.7,0-4.9.4-6.4,1.1-1.6.8-2.4,2-2.4,3.7s.5,2.7,1.6,3.4c1.1.7,2.4,1,4,1s2.3-.2,3.2-.6c.9-.4,1.7-1,2.3-1.7.6-.7,1.1-1.5,1.4-2.4.3-.9.5-1.9.5-2.9v-1.6h-4.2Z"></path><path class="st2" d="M587.8,323.1c0-1.2,0-2.2,0-3.2-.1-1-.1-1.9-.1-2.8h4c0,.7,0,1.4.1,2.1,0,.7,0,1.4,0,2.1h.1c.3-.6.7-1.2,1.2-1.8s1.1-1.1,1.9-1.5c.7-.5,1.5-.8,2.4-1.1.9-.3,1.9-.4,2.9-.4,1.7,0,3.1.3,4.3.8,1.2.5,2.2,1.2,3,2.1.8.9,1.4,2,1.8,3.3.4,1.3.6,2.7.6,4.2v15.6h-4.2v-15.2c0-2.1-.5-3.8-1.4-5-.9-1.2-2.4-1.8-4.4-1.8s-2.6.2-3.5.7c-1,.5-1.8,1.1-2.4,2-.6.9-1.1,1.9-1.4,3.1-.3,1.2-.5,2.5-.5,4v12.3h-4.2v-19.5h-.2Z"></path><path class="st2" d="M655.4,323.4c-.9-1.1-1.9-1.9-2.9-2.4s-2.2-.7-3.5-.7-2.7.2-3.7.7c-1.1.5-2,1.2-2.7,2-.7.9-1.2,1.9-1.6,3s-.5,2.4-.5,3.7.2,2.5.6,3.7c.4,1.1,1,2.1,1.7,3s1.6,1.5,2.7,2c1,.5,2.2.7,3.5.7,2.8,0,4.9-1,6.4-3.1l3.1,3c-1.2,1.4-2.7,2.4-4.3,3.1-1.6.7-3.4,1-5.2,1s-3.7-.3-5.4-1c-1.6-.6-3-1.6-4.1-2.8-1.1-1.2-2-2.6-2.7-4.2-.6-1.6-.9-3.4-.9-5.4s.3-3.7.9-5.3c.6-1.6,1.5-3,2.7-4.2,1.2-1.2,2.5-2.1,4.1-2.8,1.6-.7,3.4-1,5.3-1s3.7.3,5.3,1c1.6.7,3.1,1.7,4.4,3l-3.2,3Z"></path><path class="st2" d="M705.6,337.8c-1.5,1.9-3.2,3.3-5,4.1-1.8.8-3.9,1.2-6.3,1.2s-3.8-.4-5.4-1.1c-1.6-.7-2.9-1.7-4-2.8-1.1-1.2-1.9-2.6-2.5-4.2-.6-1.6-.9-3.4-.9-5.2s.3-3.7,1-5.4c.6-1.6,1.6-3,2.7-4.2,1.2-1.2,2.5-2.1,4.1-2.7,1.6-.6,3.3-1,5.2-1s3.4.3,4.9.9,2.8,1.5,3.8,2.6,1.9,2.5,2.5,4.2c.6,1.6.9,3.5.9,5.6v1.4h-20.6c0,1.1.3,2.1.8,3.1s1,1.9,1.8,2.6c.7.7,1.6,1.3,2.5,1.8,1,.4,2,.6,3.2.6,1.8,0,3.4-.3,4.7-1,1.3-.6,2.4-1.6,3.4-2.9l3.2,2.4ZM701.9,327.5c-.1-2.2-.8-3.9-2.1-5.2-1.3-1.3-3.2-1.9-5.5-1.9s-4.2.6-5.7,1.9c-1.4,1.3-2.3,3-2.6,5.2h15.9Z"></path><path class="st0" d="M166.8,2.6C75.1,2.6.8,76.9.8,168.6s74.3,166,166,166,166-74.3,166-166S258.5,2.6,166.8,2.6ZM115.4,153.1h-43.6v13.8h42.1v18.9h-42.1v23.2h-21.5v-74.9h65.1v19ZM203.7,209.1h-21.6v-26.4h-33.4v26.4h-21.5v-74.9h21.5v30.4h33.4v-30.4h21.6v74.9ZM253.7,191.1c8,0,13.9-2.7,16.9-11.2h21.1c-2.7,19.2-16.6,30.8-38,30.8s-40.9-17.1-40.9-39.1,15.2-39.1,40.9-39.1,35.3,11.7,38,30.8h-21.1c-3-8.6-8.9-11.2-16.9-11.2-12.4,0-19,7.8-19,19.5,0,11.7,6.6,19.5,19,19.5Z"></path></svg>